<?xml version="1.0" standalone="no"?>
<!DOCTYPE svg PUBLIC "-//W3C//DTD SVG 20010904//EN"
 "http://www.w3.org/TR/2001/REC-SVG-20010904/DTD/svg10.dtd">
<svg version="1.0" xmlns="http://www.w3.org/2000/svg"
 width="1192.000000pt" height="1192.000000pt" viewBox="0 0 1192.000000 1192.000000"
 preserveAspectRatio="xMidYMid meet">
<metadata>
Created by potrace 1.11, written by Peter Selinger 2001-2013
</metadata>
<g transform="translate(0.000000,1192.000000) scale(0.100000,-0.100000)"
fill="#000000" stroke="none">
<path d="M5530 11509 c-228 -132 -464 -268 -523 -302 -60 -34 -120 -69 -135
-78 -15 -9 -119 -69 -232 -134 -427 -246 -529 -305 -680 -392 -85 -50 -229
-133 -320 -185 -91 -52 -268 -155 -395 -228 -126 -73 -286 -165 -355 -205
-159 -91 -1101 -634 -1198 -691 l-73 -42 30 -21 c16 -12 32 -21 35 -21 3 0 30
-16 60 -35 30 -19 58 -35 61 -35 3 0 24 -11 46 -26 22 -14 57 -34 77 -46 20
-11 125 -71 232 -133 107 -62 211 -121 230 -132 19 -11 143 -82 275 -159 132
-76 256 -147 275 -157 l35 -19 160 93 c88 50 270 156 405 234 135 78 272 157
305 176 33 19 68 39 77 44 10 6 73 42 140 81 68 39 222 128 343 198 121 71
245 142 275 158 30 17 60 34 65 38 11 8 578 335 655 378 25 14 57 33 72 43 14
11 28 19 31 19 5 0 196 110 227 130 8 6 22 13 30 17 8 4 33 18 55 31 22 14 63
38 90 53 l51 28 329 -191 c182 -105 348 -201 370 -213 22 -13 123 -71 225
-130 102 -59 201 -117 220 -127 181 -103 891 -514 912 -529 15 -10 30 -19 33
-19 3 0 70 -37 148 -83 78 -46 151 -89 162 -95 11 -6 85 -49 165 -95 253 -146
694 -400 720 -414 14 -8 41 -24 61 -36 20 -12 129 -75 243 -140 l206 -118 0
-2194 0 -2193 -247 -143 c-137 -78 -259 -149 -273 -158 -14 -8 -39 -23 -57
-33 -18 -10 -247 -142 -510 -294 -263 -152 -491 -284 -508 -293 l-30 -17 0
-781 c0 -660 2 -780 14 -775 7 3 50 26 95 52 254 147 1126 651 1156 669 19 11
51 29 70 40 20 10 146 83 280 161 135 79 263 153 285 165 39 21 467 268 650
375 50 29 108 62 130 75 22 12 99 57 172 99 l131 77 0 2972 0 2973 -21 14
c-72 45 -310 180 -318 180 -5 0 -9 5 -9 10 0 6 -4 10 -9 10 -8 0 -335 187
-471 269 -19 11 -42 24 -50 28 -8 4 -64 35 -123 70 -60 35 -127 74 -150 87
-23 13 -172 99 -332 191 -159 92 -362 209 -450 260 -88 51 -349 202 -580 335
-231 133 -508 293 -615 355 -107 62 -308 178 -446 257 -138 80 -271 157 -295
171 -24 13 -111 64 -194 112 -82 48 -170 99 -195 113 -69 39 -295 169 -390
225 -47 27 -103 60 -125 72 -22 12 -115 65 -206 118 -92 54 -171 97 -175 97
-5 0 -196 -109 -424 -241z"/>
<path d="M5913 8600 c-18 -11 -194 -112 -390 -226 -403 -233 -592 -342 -903
-522 -118 -68 -231 -133 -250 -144 -19 -11 -141 -81 -270 -156 -129 -74 -296
-171 -370 -213 -74 -43 -153 -89 -175 -102 l-41 -24 1 -1409 0 -1409 115 -68
c63 -37 121 -70 129 -74 8 -3 64 -35 125 -71 61 -36 129 -75 151 -87 22 -13
94 -54 160 -92 66 -39 165 -95 220 -127 55 -31 107 -61 115 -66 8 -5 64 -37
124 -72 145 -84 174 -101 286 -165 52 -31 109 -63 125 -73 17 -9 144 -83 284
-164 139 -80 257 -146 262 -146 5 0 9 -4 9 -10 0 -5 4 -10 9 -10 6 0 79 -41
164 -90 176 -103 154 -101 282 -25 44 27 100 59 125 73 25 14 57 32 72 41 15
9 100 58 190 110 90 52 231 133 313 181 83 48 170 98 195 112 25 14 117 67
205 118 88 51 214 124 280 162 66 37 127 72 135 78 22 13 188 109 240 138 25
14 85 49 133 79 49 29 91 53 95 54 4 0 81 44 172 98 l165 97 0 1409 0 1409
-109 63 c-60 35 -127 74 -150 87 -94 53 -832 479 -841 486 -5 4 -30 18 -55 32
-108 60 -527 302 -552 319 -15 11 -29 19 -31 19 -3 0 -56 30 -118 66 -111 65
-145 85 -211 123 -18 10 -108 61 -200 115 -92 53 -170 96 -175 96 -4 0 -23 -9
-40 -20z m237 -1655 c74 -43 140 -81 145 -85 6 -4 35 -21 65 -37 30 -17 181
-103 335 -193 154 -89 294 -170 310 -180 l30 -17 0 -628 0 -629 -109 -63 c-60
-35 -111 -63 -114 -63 -3 0 -13 -6 -21 -14 -9 -7 -41 -27 -71 -43 -30 -17
-212 -121 -405 -233 -192 -111 -354 -203 -360 -203 -5 0 -33 14 -61 30 -27 17
-70 41 -95 55 -64 36 -80 45 -464 268 -192 112 -375 217 -405 234 l-55 32 0
628 0 629 425 246 c234 135 477 276 540 313 l115 66 30 -18 c17 -10 91 -53
165 -95z"/>
<path d="M803 5334 l0 -2504 36 -21 c20 -12 56 -33 81 -47 25 -14 93 -54 152
-89 59 -34 109 -63 111 -63 3 0 35 -18 72 -41 37 -22 82 -49 99 -59 18 -9 151
-86 297 -170 145 -84 278 -161 294 -170 17 -9 127 -73 245 -142 118 -68 339
-196 490 -283 151 -86 316 -181 365 -210 150 -88 735 -425 738 -425 1 0 2 352
2 781 l0 782 -340 196 c-463 269 -863 500 -903 523 -18 10 -66 37 -105 60 -40
22 -81 46 -92 52 -167 95 -185 108 -186 134 0 15 0 790 -1 1723 l0 1695 -77
46 c-42 25 -94 56 -116 68 -22 12 -96 55 -165 95 -69 40 -145 84 -170 97 -59
33 -476 274 -610 353 -58 34 -112 64 -120 68 -8 4 -34 18 -56 31 l-41 23 0
-2503z"/>
<path d="M5865 1993 c-50 -29 -97 -56 -106 -60 -8 -5 -151 -87 -317 -183
l-302 -174 2 -470 3 -470 265 -154 c146 -84 285 -165 310 -179 25 -14 86 -49
136 -79 50 -30 94 -54 98 -54 3 0 88 47 187 105 99 58 185 105 190 105 5 0 9
4 9 9 0 5 12 14 28 20 15 7 38 18 52 26 14 8 97 57 185 108 l160 92 3 470 2
470 -137 80 c-171 100 -166 97 -200 116 -15 8 -116 66 -223 128 -107 62 -209
121 -225 130 l-31 18 -89 -54z"/>
</g>
</svg>
