<svg version="1" xmlns="http://www.w3.org/2000/svg" width="1192pt" height="1192pt" viewBox="0 0 1192.000000 1192.000000"><path d="M553 41.1c-22.8 13.2-46.4 26.8-52.3 30.2-6 3.4-12 6.9-13.5 7.8-1.5.9-11.9 6.9-23.2 13.4-42.7 24.6-52.9 30.5-68 39.2-8.5 5-22.9 13.3-32 18.5-9.1 5.2-26.8 15.5-39.5 22.8-12.6 7.3-28.6 16.5-35.5 20.5-15.9 9.1-110.1 63.4-119.8 69.1l-7.3 4.2 3 2.1c1.6 1.2 3.2 2.1 3.5 2.1.3 0 3 1.6 6 3.5s5.8 3.5 6.1 3.5c.3 0 2.4 1.1 4.6 2.6 2.2 1.4 5.7 3.4 7.7 4.6 2 1.1 12.5 7.1 23.2 13.3 10.7 6.2 21.1 12.1 23 13.2 1.9 1.1 14.3 8.2 27.5 15.9 13.2 7.6 25.6 14.7 27.5 15.7l3.5 1.9 16-9.3c8.8-5 27-15.6 40.5-23.4 13.5-7.8 27.2-15.7 30.5-17.6 3.3-1.9 6.8-3.9 7.7-4.4 1-.6 7.3-4.2 14-8.1 6.8-3.9 22.2-12.8 34.3-19.8 12.1-7.1 24.5-14.2 27.5-15.8 3-1.7 6-3.4 6.5-3.8 1.1-.8 57.8-33.5 65.5-37.8 2.5-1.4 5.7-3.3 7.2-4.3 1.4-1.1 2.8-1.9 3.1-1.9.5 0 19.6-11 22.7-13 .8-.6 2.2-1.3 3-1.7.8-.4 3.3-1.8 5.5-3.1 2.2-1.4 6.3-3.8 9-5.3l5.1-2.8 32.9 19.1c18.2 10.5 34.8 20.1 37 21.3 2.2 1.3 12.3 7.1 22.5 13s20.1 11.7 22 12.7c18.1 10.3 89.1 51.4 91.2 52.9 1.5 1 3 1.9 3.3 1.9.3 0 7 3.7 14.8 8.3 7.8 4.6 15.1 8.9 16.2 9.5 1.1.6 8.5 4.9 16.5 9.5 25.3 14.6 69.4 40 72 41.4 1.4.8 4.1 2.4 6.1 3.6 2 1.2 12.9 7.5 24.3 14l20.6 11.8v438.70000000000005l-24.7 14.3c-13.7 7.8-25.9 14.9-27.3 15.8-1.4.8-3.9 2.3-5.7 3.3-1.8 1-24.7 14.2-51 29.4s-49.1 28.4-50.8 29.3l-3 1.7v78.1c0 66 .2 78 1.4 77.5.7-.3 5-2.6 9.5-5.2 25.4-14.7 112.6-65.1 115.6-66.9l7-4c2-1 14.6-8.3 28-16.1 13.5-7.9 26.3-15.3 28.5-16.5 3.9-2.1 46.7-26.8 65-37.5 5-2.9 10.8-6.2 13-7.5 2.2-1.2 9.9-5.7 17.2-9.9l13.1-7.7v-594.5l-2.1-1.4c-7.2-4.5-31-18-31.8-18-.5 0-.9-.5-.9-1 0-.6-.4-1-.9-1-.8 0-33.5-18.7-47.1-26.9-1.9-1.1-4.2-2.4-5-2.8-.8-.4-6.4-3.5-12.3-7-6-3.5-12.7-7.4-15-8.7-2.3-1.3-17.2-9.9-33.2-19.1-15.9-9.2-36.2-20.9-45-26-8.8-5.1-34.9-20.2-58-33.5s-50.8-29.3-61.5-35.5c-10.7-6.2-30.8-17.8-44.6-25.7-13.8-8-27.1-15.7-29.5-17.1-2.4-1.3-11.1-6.4-19.4-11.2-8.2-4.8-17-9.9-19.5-11.3-6.9-3.9-29.5-16.9-39-22.5-4.7-2.7-10.3-6-12.5-7.2-2.2-1.2-11.5-6.5-20.6-11.8-9.2-5.4-17.1-9.7-17.5-9.7-.5 0-19.6 10.9-42.4 24.1zM591.3 332c-1.8 1.1-19.4 11.2-39 22.6-40.3 23.3-59.2 34.2-90.3 52.2l-25 14.4c-1.9 1.1-14.1 8.1-27 15.6-12.9 7.4-29.6 17.1-37 21.3-7.4 4.3-15.3 8.9-17.5 10.2l-4.1 2.4.1 140.9v140.9l11.5 6.8c6.3 3.7 12.1 7 12.9 7.4.8.3 6.4 3.5 12.5 7.1 6.1 3.6 12.9 7.5 15.1 8.7 2.2 1.3 9.4 5.4 16 9.2 6.6 3.9 16.5 9.5 22 12.7 5.5 3.1 10.7 6.1 11.5 6.6.8.5 6.4 3.7 12.4 7.2 14.5 8.4 17.4 10.1 28.6 16.5 5.2 3.1 10.9 6.3 12.5 7.3 1.7.9 14.4 8.3 28.4 16.4 13.9 8 25.7 14.6 26.2 14.6s.9.4.9 1c0 .5.4 1 .9 1 .6 0 7.9 4.1 16.4 9 17.6 10.3 15.4 10.1 28.2 2.5 4.4-2.7 10-5.9 12.5-7.3 2.5-1.4 5.7-3.2 7.2-4.1 1.5-.9 10-5.8 19-11s23.1-13.3 31.3-18.1c8.3-4.8 17-9.8 19.5-11.2 2.5-1.4 11.7-6.7 20.5-11.8 8.8-5.1 21.4-12.4 28-16.2 6.6-3.7 12.7-7.2 13.5-7.8 2.2-1.3 18.8-10.9 24-13.8 2.5-1.4 8.5-4.9 13.3-7.9 4.9-2.9 9.1-5.3 9.5-5.4.4 0 8.1-4.4 17.2-9.8l16.5-9.7v-281.8l-10.9-6.3c-6-3.5-12.7-7.4-15-8.7-9.4-5.3-83.2-47.9-84.1-48.6-.5-.4-3-1.8-5.5-3.2-10.8-6-52.7-30.2-55.2-31.9-1.5-1.1-2.9-1.9-3.1-1.9-.3 0-5.6-3-11.8-6.6-11.1-6.5-14.5-8.5-21.1-12.3-1.8-1-10.8-6.1-20-11.5-9.2-5.3-17-9.6-17.5-9.6-.4 0-2.3.9-4 2zm23.7 165.5c7.4 4.3 14 8.1 14.5 8.5.6.4 3.5 2.1 6.5 3.7 3 1.7 18.1 10.3 33.5 19.3 15.4 8.9 29.4 17 31 18l3 1.7v125.69999999999999l-10.9 6.3c-6 3.5-11.1 6.3-11.4 6.3-.3 0-1.3.6-2.1 1.4-.9.7-4.1 2.7-7.1 4.3-3 1.7-21.2 12.1-40.5 23.3-19.2 11.1-35.4 20.3-36 20.3-.5 0-3.3-1.4-6.1-3-2.7-1.7-7-4.1-9.5-5.5-6.4-3.6-8-4.5-46.4-26.8-19.2-11.2-37.5-21.7-40.5-23.4l-5.5-3.2v-125.69999999999999l42.5-24.6c23.4-13.5 47.7-27.6 54-31.3l11.5-6.6 3 1.8c1.7 1 9.1 5.3 16.5 9.5zM80.3 658.6v250.4l3.6 2.1c2 1.2 5.6 3.3 8.1 4.7 2.5 1.4 9.3 5.4 15.2 8.9 5.9 3.4 10.9 6.3 11.1 6.3.3 0 3.5 1.8 7.2 4.1 3.7 2.2 8.2 4.9 9.9 5.9 1.8.9 15.1 8.6 29.7 17 14.5 8.4 27.8 16.1 29.4 17 1.7.9 12.7 7.3 24.5 14.2 11.8 6.8 33.9 19.6 49 28.3 15.1 8.6 31.6 18.1 36.5 21 15 8.8 73.5 42.5 73.8 42.5.1 0 .2-35.2.2-78.1v-78.2l-34-19.6c-46.3-26.9-86.3-50-90.3-52.3-1.8-1-6.6-3.7-10.5-6-4-2.2-8.1-4.6-9.2-5.2-16.7-9.5-18.5-10.8-18.6-13.4 0-1.5 0-79-.1-172.3v-169.5l-7.7-4.6c-4.2-2.5-9.4-5.6-11.6-6.8-2.2-1.2-9.6-5.5-16.5-9.5s-14.5-8.4-17-9.7c-5.9-3.3-47.6-27.4-61-35.3-5.8-3.4-11.2-6.4-12-6.8-.8-.4-3.4-1.8-5.6-3.1l-4.1-2.3v250.3zM586.5 992.7c-5 2.9-9.7 5.6-10.6 6-.8.5-15.1 8.7-31.7 18.3l-30.2 17.4.2 47 .3 47 26.5 15.4c14.6 8.4 28.5 16.5 31 17.9 2.5 1.4 8.6 4.9 13.6 7.9s9.4 5.4 9.8 5.4c.3 0 8.8-4.7 18.7-10.5 9.9-5.8 18.5-10.5 19-10.5s.9-.4.9-.9 1.2-1.4 2.8-2c1.5-.7 3.8-1.8 5.2-2.6 1.4-.8 9.7-5.7 18.5-10.8l16-9.2.3-47 .2-47-13.7-8c-17.1-10-16.6-9.7-20-11.6-1.5-.8-11.6-6.6-22.3-12.8-10.7-6.2-20.9-12.1-22.5-13l-3.1-1.8-8.9 5.4z"/></svg>